<svg width="126" height="48" viewBox="0 0 126 48" fill="none" xmlns="http://www.w3.org/2000/svg">
<circle cx="24" cy="24" r="24" fill="#292929"/>
<path d="M17.532 34.648C16.212 34.648 14.868 34.48 13.5 34.144C12.132 33.832 10.992 33.412 10.08 32.884L10.26 27.988H10.62L11.736 30.328C12.072 31 12.432 31.6 12.816 32.128C13.2 32.632 13.728 33.028 14.4 33.316C14.88 33.556 15.336 33.724 15.768 33.82C16.224 33.892 16.728 33.928 17.28 33.928C18.744 33.928 19.896 33.532 20.736 32.74C21.6 31.948 22.032 30.928 22.032 29.68C22.032 28.504 21.744 27.592 21.168 26.944C20.592 26.272 19.668 25.624 18.396 25L16.92 24.352C14.856 23.44 13.236 22.396 12.06 21.22C10.908 20.02 10.332 18.436 10.332 16.468C10.332 15.052 10.692 13.828 11.412 12.796C12.156 11.764 13.176 10.972 14.472 10.42C15.792 9.86801 17.328 9.59201 19.08 9.59201C20.352 9.59201 21.552 9.76001 22.68 10.096C23.832 10.432 24.828 10.888 25.668 11.464L25.452 15.784H25.092L23.616 13.084C23.208 12.244 22.8 11.656 22.392 11.32C21.984 10.96 21.516 10.708 20.988 10.564C20.676 10.468 20.388 10.408 20.124 10.384C19.86 10.336 19.524 10.312 19.116 10.312C17.892 10.312 16.86 10.672 16.02 11.392C15.18 12.088 14.76 13.036 14.76 14.236C14.76 15.46 15.084 16.444 15.732 17.188C16.38 17.908 17.328 18.556 18.576 19.132L20.232 19.852C22.536 20.86 24.192 21.94 25.2 23.092C26.208 24.22 26.712 25.684 26.712 27.484C26.712 29.596 25.908 31.324 24.3 32.668C22.716 33.988 20.46 34.648 17.532 34.648Z" fill="white"/>
<path d="M33.7494 34.54C32.3574 34.54 31.1814 34.144 30.2214 33.352C29.2854 32.56 28.8174 31.42 28.8174 29.932C28.8174 28.804 29.3934 27.772 30.5454 26.836C31.6974 25.876 33.5094 25.156 35.9814 24.676C36.3654 24.604 36.7974 24.532 37.2774 24.46C37.7574 24.364 38.2614 24.268 38.7894 24.172V21.328C38.7894 19.696 38.5854 18.556 38.1774 17.908C37.7934 17.236 37.1814 16.9 36.3414 16.9C35.7654 16.9 35.3094 17.092 34.9734 17.476C34.6374 17.836 34.4214 18.472 34.3254 19.384L34.2534 19.78C34.2054 20.812 33.9534 21.568 33.4974 22.048C33.0414 22.528 32.4774 22.768 31.8054 22.768C31.1814 22.768 30.6654 22.576 30.2574 22.192C29.8494 21.808 29.6454 21.292 29.6454 20.644C29.6454 19.66 29.9814 18.832 30.6534 18.16C31.3494 17.488 32.2614 16.984 33.3894 16.648C34.5174 16.312 35.7414 16.144 37.0614 16.144C39.1974 16.144 40.8414 16.672 41.9934 17.728C43.1694 18.76 43.7574 20.452 43.7574 22.804V30.76C43.7574 31.84 44.2614 32.38 45.2694 32.38H46.0614L46.3854 32.668C45.9294 33.244 45.4254 33.688 44.8734 34C44.3454 34.312 43.5894 34.468 42.6054 34.468C41.5494 34.468 40.7094 34.228 40.0854 33.748C39.4854 33.244 39.0894 32.584 38.8974 31.768C38.1774 32.536 37.4334 33.196 36.6654 33.748C35.9214 34.276 34.9494 34.54 33.7494 34.54ZM35.9454 32.344C36.4254 32.344 36.8694 32.236 37.2774 32.02C37.7094 31.78 38.2134 31.42 38.7894 30.94V24.892C38.5494 24.94 38.3094 24.988 38.0694 25.036C37.8294 25.084 37.5534 25.132 37.2414 25.18C36.1374 25.468 35.2494 25.96 34.5774 26.656C33.9294 27.328 33.6054 28.24 33.6054 29.392C33.6054 30.376 33.8334 31.12 34.2894 31.624C34.7454 32.104 35.2974 32.344 35.9454 32.344Z" fill="white"/>
<path d="M47.1262 34V33.64L47.6302 33.496C48.0862 33.376 48.3982 33.172 48.5662 32.884C48.7582 32.596 48.8663 32.212 48.8902 31.732V20.464C48.8902 19.936 48.8062 19.552 48.6382 19.312C48.4702 19.048 48.1462 18.868 47.6662 18.772L47.1262 18.628V18.268L53.2822 16.18L53.6422 16.54L53.9303 18.988C54.7222 18.196 55.6222 17.524 56.6302 16.972C57.6622 16.42 58.7302 16.144 59.8342 16.144C60.9862 16.144 61.9102 16.384 62.6062 16.864C63.3022 17.32 63.8302 18.04 64.1902 19.024C65.1262 18.136 66.1342 17.44 67.2142 16.936C68.3182 16.408 69.3862 16.144 70.4182 16.144C72.1222 16.144 73.3703 16.552 74.1623 17.368C74.9783 18.184 75.3863 19.468 75.3863 21.22V31.768C75.3863 32.704 75.8183 33.292 76.6822 33.532L77.0783 33.64V34H68.7623V33.64L69.1223 33.532C69.5783 33.388 69.8902 33.172 70.0582 32.884C70.2502 32.596 70.3463 32.212 70.3463 31.732V20.716C70.3463 19.708 70.1663 19.024 69.8062 18.664C69.4462 18.28 68.8702 18.088 68.0782 18.088C67.4542 18.088 66.8422 18.232 66.2422 18.52C65.6662 18.784 65.0542 19.192 64.4062 19.744C64.5262 20.128 64.5982 20.548 64.6223 21.004C64.6703 21.46 64.6943 21.94 64.6943 22.444V31.768C64.7182 32.704 65.1502 33.292 65.9902 33.532L66.3142 33.64V34H57.9622V33.64L58.4662 33.496C58.9223 33.352 59.2343 33.148 59.4023 32.884C59.5943 32.596 59.6902 32.212 59.6902 31.732V20.752C59.6902 19.792 59.5102 19.108 59.1502 18.7C58.8142 18.292 58.2262 18.088 57.3862 18.088C56.8342 18.088 56.2822 18.232 55.7302 18.52C55.1783 18.784 54.6022 19.18 54.0022 19.708V31.768C54.0022 32.704 54.4222 33.292 55.2622 33.532L55.5862 33.64V34H47.1262Z" fill="#292929"/>
<path d="M77.9583 42.28V41.92L78.3903 41.776C79.2783 41.536 79.7223 40.96 79.7223 40.048V20.464C79.7223 19.936 79.6263 19.54 79.4343 19.276C79.2663 19.012 78.9423 18.832 78.4623 18.736L77.9583 18.628V18.268L84.0783 16.18L84.4383 16.54L84.7623 17.656C85.5543 17.176 86.4303 16.804 87.3903 16.54C88.3743 16.276 89.3823 16.144 90.4143 16.144C92.4783 16.144 94.1103 16.936 95.3103 18.52C96.5343 20.08 97.1463 22.324 97.1463 25.252C97.1463 28.132 96.4743 30.4 95.1303 32.056C93.8103 33.712 91.9383 34.54 89.5143 34.54C87.6183 34.54 86.0223 34.264 84.7263 33.712V39.94C84.7263 40.9 85.1583 41.5 86.0223 41.74L86.7063 41.92V42.28H77.9583ZM87.7863 33.496C88.9863 33.496 89.9343 32.872 90.6303 31.624C91.3503 30.376 91.7103 28.3 91.7103 25.396C91.7103 22.492 91.3743 20.464 90.7023 19.312C90.0303 18.136 89.0583 17.548 87.7863 17.548C86.8983 17.548 85.9143 17.836 84.8343 18.412V32.92C85.7463 33.304 86.7303 33.496 87.7863 33.496Z" fill="#292929"/>
<path d="M98.7382 34V33.64L99.1702 33.496C100.034 33.208 100.466 32.608 100.466 31.696V12.436C100.466 11.956 100.37 11.596 100.178 11.356C99.9862 11.092 99.6502 10.9 99.1702 10.78L98.7022 10.672V10.312L105.29 8.76401L105.722 9.08801L105.578 14.128V26.44C105.578 27.328 105.578 28.216 105.578 29.104C105.602 29.968 105.614 30.832 105.614 31.696C105.614 32.176 105.71 32.572 105.902 32.884C106.094 33.172 106.418 33.388 106.874 33.532L107.342 33.64V34H98.7382Z" fill="#292929"/>
<path d="M117.967 16.144C119.527 16.144 120.859 16.468 121.963 17.116C123.067 17.74 123.907 18.604 124.483 19.708C125.083 20.788 125.383 22.024 125.383 23.416C125.383 23.68 125.371 23.956 125.347 24.244C125.323 24.508 125.275 24.748 125.203 24.964H114.475C114.499 27.556 114.955 29.428 115.843 30.58C116.755 31.708 118.099 32.272 119.875 32.272C121.075 32.272 122.047 32.08 122.791 31.696C123.535 31.312 124.231 30.748 124.879 30.004L125.239 30.328C124.495 31.648 123.499 32.68 122.251 33.424C121.027 34.168 119.551 34.54 117.823 34.54C116.119 34.54 114.607 34.18 113.287 33.46C111.967 32.716 110.935 31.66 110.191 30.292C109.447 28.924 109.075 27.292 109.075 25.396C109.075 23.428 109.507 21.76 110.371 20.392C111.235 19 112.339 17.944 113.683 17.224C115.051 16.504 116.479 16.144 117.967 16.144ZM117.859 16.864C117.163 16.864 116.563 17.08 116.059 17.512C115.579 17.92 115.195 18.664 114.907 19.744C114.643 20.8 114.499 22.3 114.475 24.244H120.631C120.871 21.628 120.775 19.744 120.343 18.592C119.911 17.44 119.083 16.864 117.859 16.864Z" fill="#292929"/>
</svg>
